HIERARCHY
ROOT Hips
{
  OFFSET 50.6608 100.647 5.62796
  CHANNELS 6 Xposition Yposition Zposition Zrotation Xrotation Yrotation
  JOINT spine
  {
    OFFSET 0 8.81704 0.507024
    CHANNELS 3 Zrotation Xrotation Yrotation
    JOINT spine1
    {
      OFFSET 0 10.7766 0
      CHANNELS 3 Zrotation Xrotation Yrotation
      JOINT spine2
      {
        OFFSET 0 10.3259 0
        CHANNELS 3 Zrotation Xrotation Yrotation
        JOINT Neck
        {
          OFFSET 0 26.511 1.26395
          CHANNELS 3 Zrotation Xrotation Yrotation
          JOINT Head
          {
            OFFSET 0 8.00966 0
            CHANNELS 3 Zrotation Xrotation Yrotation
            End Site
            {
              OFFSET 0 19.3879 -6.39386
            }
          }
        }
        JOINT RightShoulder
        {
          OFFSET -4.34795 11.1512 -0.605422
          CHANNELS 3 Zrotation Xrotation Yrotation
          JOINT RightArm
          {
            OFFSET 0 14.6258 0
            CHANNELS 3 Zrotation Xrotation Yrotation
            JOINT RightArmRoll
            {
              OFFSET 0 7.3834 0
              CHANNELS 3 Zrotation Xrotation Yrotation
              JOINT RightForeArm
              {
                OFFSET 0 21.5052 0
                CHANNELS 3 Zrotation Xrotation Yrotation
                JOINT RightForeArmRoll
                {
                  OFFSET 0 8.28532 0
                  CHANNELS 3 Zrotation Xrotation Yrotation
                  JOINT RightHand
                  {
                    OFFSET 0 16.6268 0
                    CHANNELS 3 Zrotation Xrotation Yrotation
                    End Site
                    {
                      OFFSET 0 0 0
                    }
                  }
                }
              }
            }
          }
        }
        JOINT LeftShoulder
        {
          OFFSET 4.34795 11.1512 -0.605422
          CHANNELS 3 Zrotation Xrotation Yrotation
          JOINT LeftArm
          {
            OFFSET 0 14.6258 0
            CHANNELS 3 Zrotation Xrotation Yrotation
            JOINT LeftArmRoll
            {
              OFFSET 0 7.3834 0
              CHANNELS 3 Zrotation Xrotation Yrotation
              JOINT LeftForeArm
              {
                OFFSET 0 21.5052 0
                CHANNELS 3 Zrotation Xrotation Yrotation
                JOINT LeftForeArmRoll
                {
                  OFFSET 0 8.28532 0
                  CHANNELS 3 Zrotation Xrotation Yrotation
                  JOINT LeftHand
                  {
                    OFFSET 0 16.6268 0
                    CHANNELS 3 Zrotation Xrotation Yrotation
                    End Site
                    {
                      OFFSET 0 0 0
                    }
                  }
                }
              }
            }
          }
        }
      }
    }
  }
  JOINT RightUpLeg
  {
    OFFSET -7.8151 -1.43309 -1.20217
    CHANNELS 3 Zrotation Xrotation Yrotation
    JOINT RightUpLegRoll
    {
      OFFSET 0 19.4959 0
      CHANNELS 3 Zrotation Xrotation Yrotation
      JOINT RightLeg
      {
        OFFSET 0 -24.1427 0
        CHANNELS 3 Zrotation Xrotation Yrotation
        JOINT RightLegRoll
        {
          OFFSET 0 24.2217 0
          CHANNELS 3 Zrotation Xrotation Yrotation
          JOINT RightFoot
          {
            OFFSET 0 20.1605 0
            CHANNELS 3 Zrotation Xrotation Yrotation
            JOINT RightToeBase
            {
              OFFSET 0 16.8532 0
              CHANNELS 3 Zrotation Xrotation Yrotation
              End Site
              {
                OFFSET 0.00714343 8.16187 -0.94078
              }
            }
          }
        }
      }
    }
  }
  JOINT LeftUpLeg
  {
    OFFSET 7.8151 -1.43309 -1.20217
    CHANNELS 3 Zrotation Xrotation Yrotation
    JOINT LeftUpLegRoll
    {
      OFFSET 0 19.496 0
      CHANNELS 3 Zrotation Xrotation Yrotation
      JOINT LeftLeg
      {
        OFFSET 0 24.1426 0
        CHANNELS 3 Zrotation Xrotation Yrotation
        JOINT LeftLegRoll
        {
          OFFSET 0 24.4456 0
          CHANNELS 3 Zrotation Xrotation Yrotation
          JOINT LeftFoot
          {
            OFFSET 0 19.9366 0
            CHANNELS 3 Zrotation Xrotation Yrotation
            JOINT LeftToeBase
            {
              OFFSET 0 16.8532 0
              CHANNELS 3 Zrotation Xrotation Yrotation
              End Site
              {
                OFFSET -0.0320138 8.16187 -0.94078
              }
            }
          }
        }
      }
    }
  }
}
MOTION
Frames: 10
Frame Time: 0.00208333
50.993 100.672 5.08058 0.00854406 -3.83136 2.13687 0.026933 -1.94954 -0.104424 0.0715646 0.103706 -0.202808 0.0739194 1.74876 -0.20414 -4.57178 27.5042 2.25275 -3.76487 0.929208 0.215612 66.5622 -2.35222 -2.20869 107.656 17.4401 11.3587 -1.59028e-015 6.36111e-015 -0 14.708 0.106265 -0.503102 8.34693e-006 4.93528e-006 -3.0399 8.02894 -4.95146 0.697702 -63.2158 -3.59121 2.60114 -109.902 14.5989 -4.89178 -3.93836e-006 -4.58082e-006 1.31804e-006 -11.6912 2.40462 0.682666 7.79491e-006 -4.91729e-006 3 -8.02887 -4.95148 -0.697683 178.237 -2.8289 -0.0409862 180 7.01533e-015 178.866 178.372 5.52026 179.723 -1.75102e-006 4.56899e-006 0.0370722 -18.1512 67.2995 18.9595 8.14762 25.4109 -3.24306 -176.987 -1.51024 2.16015 4.54188e-006 -4.6773e-006 -1.13778 -2.05444 -7.6966 0.180107 1.49002e-006 -3.53109e-006 -0.128101 19.3652 68.7945 -20.2058 -8.13649 25.2327 3.48774 
50.9758 100.672 5.07191 0.00654533 -3.82572 2.12622 0.0269329 -1.95091 -0.104238 0.0710899 0.100962 -0.201872 0.0734612 1.74601 -0.203186 -4.61096 27.4934 2.27072 -3.74295 0.940574 0.222352 66.5475 -2.35194 -2.20729 107.659 17.4312 11.3733 2.78299e-014 0 1.11319e-014 14.6933 0.106272 -0.498223 8.34693e-006 4.93528e-006 -3.03939 8.02894 -4.95146 0.697702 -63.2325 -3.59408 2.6041 -109.889 14.6006 -4.88654 -3.93836e-006 -4.58082e-006 1.31804e-006 -11.6981 2.41843 0.683495 7.79491e-006 -4.91729e-006 3 -8.02887 -4.95148 -0.697683 178.242 -2.82061 -0.049769 180 7.01533e-015 178.866 178.381 5.51826 179.722 -1.75102e-006 4.56899e-006 0.0370722 -18.1525 67.3011 18.9609 8.14729 25.406 -3.24984 -176.983 -1.506 2.15504 4.54188e-006 -4.6773e-006 -1.13778 -2.05898 -7.69509 0.179554 1.49002e-006 -3.53109e-006 -0.128101 19.3635 68.7927 -20.2041 -8.13649 25.2327 3.48774 
50.9661 100.67 5.05748 0.00453614 -3.81983 2.11547 0.0269329 -1.95232 -0.104051 0.0705895 0.0981342 -0.200879 0.0729781 1.74319 -0.202175 -4.65031 27.4825 2.2888 -3.72066 0.952227 0.229199 66.5327 -2.35171 -2.20591 107.661 17.4227 11.3871 2.54444e-014 -3.18055e-015 9.54166e-015 14.6792 0.106279 -0.493434 8.34693e-006 4.93528e-006 -3.0389 8.02894 -4.95146 0.697702 -63.2492 -3.5969 2.60704 -109.877 14.6022 -4.88113 -3.93836e-006 -4.58082e-006 1.31804e-006 -11.7051 2.43271 0.684357 7.79491e-006 -4.91729e-006 3 -8.02887 -4.95148 -0.697683 178.248 -2.81201 -0.0588277 180 7.01533e-015 178.866 178.391 5.5162 179.721 -1.75102e-006 4.56899e-006 0.0370722 -18.1538 67.3028 18.9623 8.14695 25.4009 -3.25686 -176.979 -1.50142 2.14979 4.54188e-006 -4.6773e-006 -1.13778 -2.06365 -7.69366 0.17898 1.49002e-006 -3.53109e-006 -0.128101 19.3618 68.7909 -20.2022 -8.13649 25.2327 3.48774 
50.9789 100.673 5.06686 0.0025204 -3.81377 2.10463 0.0269329 -1.95376 -0.103864 0.070071 0.0952487 -0.199846 0.0724777 1.74031 -0.201123 -4.68979 27.4714 2.30696 -3.69813 0.964079 0.236121 66.5179 -2.35151 -2.20454 107.664 17.4145 11.4004 1.66979e-014 -3.18055e-015 6.36111e-015 14.6654 0.106286 -0.488709 8.34693e-006 4.93528e-006 -3.03842 8.02894 -4.95146 0.697702 -63.2658 -3.59969 2.60996 -109.864 14.6038 -4.87562 -3.93836e-006 -4.58082e-006 1.31804e-006 -11.7122 2.4473 0.68524 7.79491e-006 -4.91729e-006 3 -8.02887 -4.95148 -0.697683 178.254 -2.80319 -0.0680793 180 7.01533e-015 178.866 178.4 5.51408 179.72 -1.75102e-006 4.56899e-006 0.0370722 -18.1551 67.3045 18.9638 8.1466 25.3956 -3.26403 -176.974 -1.49661 2.14447 4.54188e-006 -4.6773e-006 -1.13778 -2.06842 -7.69228 0.17839 1.49002e-006 -3.53109e-006 -0.128101 19.3601 68.7889 -20.2004 -8.13649 25.2327 3.48774 
50.9814 100.67 5.05913 0.000501955 -3.80761 2.09375 0.0269329 -1.95522 -0.103676 0.0695423 0.0923299 -0.19879 0.0719675 1.73739 -0.200048 -4.72933 27.4603 2.32517 -3.67546 0.976047 0.243085 66.5031 -2.35133 -2.20318 107.668 17.4064 11.4134 -8.74653e-015 3.18055e-015 -6.36111e-015 14.6518 0.106292 -0.48402 8.34693e-006 4.93528e-006 -3.03795 8.02894 -4.95146 0.697702 -63.2825 -3.60246 2.61287 -109.852 14.6054 -4.87004 -3.93836e-006 -4.58082e-006 1.31804e-006 -11.7193 2.46207 0.686137 7.79491e-006 -4.91729e-006 3 -8.02887 -4.95148 -0.697683 178.26 -2.79426 -0.0774412 180 7.01533e-015 178.866 178.41 5.51191 179.719 -1.75102e-006 4.56899e-006 0.0370722 -18.1565 67.3063 18.9653 8.14624 25.3903 -3.27129 -176.97 -1.49167 2.13909 4.54188e-006 -4.6773e-006 -1.13778 -2.07325 -7.69093 0.177792 1.49002e-006 -3.53109e-006 -0.128101 19.3584 68.787 -20.1985 -8.13649 25.2327 3.48774 
50.9752 100.67 5.0617 -0.00151539 -3.80143 2.08286 0.0269329 -1.95668 -0.103488 0.0690112 0.0894027 -0.197729 0.0714548 1.73447 -0.198967 -4.76889 27.4492 2.34339 -3.65275 0.988042 0.25006 66.4884 -2.35115 -2.20182 107.671 17.3984 11.4263 7.95139e-016 9.54166e-015 1.59028e-015 14.6382 0.106299 -0.479341 8.34693e-006 4.93528e-006 -3.03749 8.02894 -4.95146 0.697702 -63.2992 -3.60522 2.61578 -109.84 14.6069 -4.86445 -3.93836e-006 -4.58082e-006 1.31804e-006 -11.7265 2.4769 0.687036 7.79491e-006 -4.91729e-006 3 -8.02887 -4.95148 -0.697683 178.265 -2.78529 -0.0868305 180 7.01533e-015 178.866 178.42 5.50975 179.718 -1.75102e-006 4.56899e-006 0.0370722 -18.1578 67.308 18.9667 8.14588 25.385 -3.27858 -176.966 -1.48669 2.1337 4.54188e-006 -4.6773e-006 -1.13778 -2.07809 -7.68959 0.177192 1.49002e-006 -3.53109e-006 -0.128101 19.3566 68.7851 -20.1966 -8.13649 25.2327 3.48774 
50.9711 100.675 5.03082 -0.00352789 -3.7953 2.07199 0.0269329 -1.95814 -0.103301 0.0684853 0.0864922 -0.196679 0.0709473 1.73156 -0.197898 -4.80839 27.4381 2.36158 -3.63012 0.999981 0.257014 66.4736 -2.35097 -2.20046 107.674 17.3904 11.4394 3.10104e-014 0 7.95139e-015 14.6246 0.106305 -0.474643 8.34693e-006 4.93528e-006 -3.03702 8.02894 -4.95146 0.697702 -63.3158 -3.60799 2.61869 -109.827 14.6085 -4.85889 -3.93836e-006 -4.58082e-006 1.31804e-006 -11.7336 2.49162 0.68793 7.79491e-006 -4.91729e-006 3 -8.02887 -4.95148 -0.697683 178.271 -2.77638 -0.0961645 180 7.01533e-015 178.866 178.43 5.50759 179.717 -1.75102e-006 4.56899e-006 0.0370722 -18.1592 67.3097 18.9682 8.14553 25.3797 -3.28582 -176.962 -1.48178 2.12833 4.54188e-006 -4.6773e-006 -1.13778 -2.0829 -7.68824 0.176596 1.49002e-006 -3.53109e-006 -0.128101 19.3548 68.7831 -20.1947 -8.13649 25.2327 3.48774 
50.9798 100.677 5.03722 -0.00553193 -3.78929 2.06118 0.026933 -1.95957 -0.103114 0.0679724 0.0836233 -0.195658 0.0704523 1.72869 -0.196858 -4.8478 27.427 2.3797 -3.60767 1.01178 0.263915 66.4588 -2.35076 -2.19909 107.677 17.3821 11.4529 2.94201e-014 -3.18055e-015 1.11319e-014 14.6107 0.106312 -0.469899 8.34693e-006 4.93528e-006 -3.03654 8.02894 -4.95146 0.697702 -63.3325 -3.61079 2.62162 -109.815 14.6101 -4.85341 -3.93836e-006 -4.58082e-006 1.31804e-006 -11.7407 2.50613 0.688807 7.79491e-006 -4.91729e-006 3 -8.02887 -4.95148 -0.697683 178.277 -2.76763 -0.10536 180 7.01533e-015 178.866 178.44 5.50546 179.716 -1.75102e-006 4.56899e-006 0.0370722 -18.1605 67.3114 18.9697 8.14517 25.3745 -3.29295 -176.958 -1.47703 2.12303 4.54188e-006 -4.6773e-006 -1.13778 -2.08764 -7.68684 0.176011 1.49002e-006 -3.53109e-006 -0.128101 19.3531 68.7812 -20.1929 -8.13649 25.2327 3.48774 
50.9742 100.681 5.08346 -0.00752387 -3.78347 2.05046 0.026933 -1.96097 -0.102927 0.0674803 0.0808208 -0.194682 0.0699773 1.72589 -0.195864 -4.88706 27.4162 2.39773 -3.58551 1.02334 0.27073 66.4441 -2.35051 -2.1977 107.68 17.3735 11.4669 7.15625e-015 0 1.59028e-015 14.5964 0.106319 -0.465083 8.34693e-006 4.93528e-006 -3.03604 8.02894 -4.95146 0.697702 -63.3491 -3.61362 2.62456 -109.802 14.6117 -4.84805 -3.93836e-006 -4.58082e-006 1.31804e-006 -11.7476 2.52026 0.68966 7.79491e-006 -4.91729e-006 3 -8.02887 -4.95148 -0.697683 178.283 -2.75912 -0.114336 180 7.01533e-015 178.866 178.449 5.50343 179.715 -1.75102e-006 4.56899e-006 0.0370722 -18.1618 67.3131 18.9711 8.14483 25.3695 -3.29989 -176.954 -1.47255 2.11782 4.54188e-006 -4.6773e-006 -1.13778 -2.09227 -7.68539 0.175443 1.49002e-006 -3.53109e-006 -0.128101 19.3514 68.7794 -20.1911 -8.13649 25.2327 3.48774 
50.9761 100.676 5.06956 -0.00950022 -3.77792 2.03986 0.0269331 -1.96232 -0.102741 0.0670167 0.0781097 -0.193768 0.0695298 1.72318 -0.194934 -4.9261 27.4055 2.41562 -3.56375 1.03459 0.277429 66.4294 -2.35022 -2.19628 107.682 17.3644 11.4818 1.90833e-014 0 4.77083e-015 14.5815 0.106326 -0.460168 8.34693e-006 4.93528e-006 -3.03552 8.02894 -4.95146 0.697702 -63.3658 -3.61652 2.62754 -109.79 14.6134 -4.84287 -3.93836e-006 -4.58082e-006 1.31804e-006 -11.7545 2.5339 0.690477 7.79491e-006 -4.91729e-006 3 -8.02887 -4.95148 -0.697683 178.288 -2.75096 -0.123007 180 7.01533e-015 178.866 178.458 5.50149 179.714 -1.75102e-006 4.56899e-006 0.0370722 -18.1631 67.3147 18.9724 8.14449 25.3646 -3.30657 -176.95 -1.46844 2.11276 4.54188e-006 -4.6773e-006 -1.13778 -2.09675 -7.68385 0.174898 1.49002e-006 -3.53109e-006 -0.128101 19.3498 68.7776 -20.1894 -8.13649 25.2327 3.48774 
